<svg xmlns="http://www.w3.org/2000/svg" width="900" height="600" viewBox="0 0 900 600" role="img" aria-label="校园卡示意图">
<defs><linearGradient id="bg" x2="1" y2="1"><stop stop-color="#f4e4db"/><stop offset="1" stop-color="#faf7f3"/></linearGradient><filter id="shadow" x="-30%" y="-30%" width="160%" height="180%"><feDropShadow dx="0" dy="18" stdDeviation="15" flood-color="#6d5444" flood-opacity=".14"/></filter></defs>
<rect width="900" height="600" fill="url(#bg)"/><circle cx="790" cy="30" r="210" fill="white" opacity=".32"/>
<ellipse cx="450" cy="491" rx="235" ry="23" fill="#493429" opacity=".06"/><g transform="rotate(-7 450 300)" filter="url(#shadow)"><rect x="205" y="140" width="490" height="316" rx="24" fill="#d6e7ef"/><rect x="220" y="155" width="460" height="286" rx="16" fill="#fffdf9"/><path d="M220 175a20 20 0 0 1 20-20h420a20 20 0 0 1 20 20v65H220Z" fill="#d4806e"/><text x="250" y="206" fill="white" font-size="23" font-family="Arial,sans-serif" letter-spacing="4">CAMPUS CARD</text><rect x="250" y="270" width="105" height="120" rx="12" fill="#f0e9e3"/><circle cx="302" cy="307" r="21" fill="#d4c4b8"/><path d="M265 377c0-51 74-51 74 0" fill="#d4c4b8"/><path d="M387 288h211m-211 34h175m-175 35h132" stroke="#d9d3cc" stroke-width="10" stroke-linecap="round"/><text x="387" y="404" fill="#a69589" font-size="16" font-family="Arial,sans-serif" letter-spacing="3">SAMPLE ONLY</text></g>
</svg>